<svg width="2057" height="974" viewBox="0 0 2057 974" fill="none" xmlns="http://www.w3.org/2000/svg">
<path d="M0 0V974H2057V0H0Z" fill="#2C2E34"/>
<path d="M665 344H664V243H588V874H664V698C687.623 698.016 711.381 702.926 735 703.961C775.672 705.742 816.475 699.144 853 680.752C948.535 632.647 984.474 519.406 984.001 420C983.764 370.136 973.232 317.088 938.83 279C927.675 266.649 914.317 255.923 900 247.452C834.854 208.906 754.17 242.846 705 292C690.353 306.643 673.306 324.75 665 344Z" fill="#FDA703"/>
<path d="M1052 243C1055.23 254.225 1061.84 264.431 1066.69 275C1078.57 300.879 1091.34 326.364 1103.74 352C1138.67 424.196 1173.53 496.48 1207.78 569C1219.94 594.748 1232.62 620.253 1244.78 646C1249.48 655.955 1258.62 668.014 1260.15 679C1260.91 684.421 1256.41 691.114 1254.45 696C1248.47 710.925 1241.47 725.193 1233.2 739C1224.75 753.119 1216.17 767.893 1204.91 780C1196.77 788.759 1188.13 797.487 1178 803.946C1136.12 830.659 1089.57 824.447 1044 814V881C1097.21 887.871 1151.21 891.624 1201 866.73C1250.69 841.886 1280.61 792.761 1305.26 745C1350.89 656.585 1384.94 561.71 1423.42 470C1444.24 420.395 1464.61 370.604 1485.42 321C1492.27 304.684 1498.92 288.279 1505.85 272C1509.78 262.776 1515.29 252.91 1517 243H1463C1457.57 243 1447.09 240.999 1442.39 244.028C1436.75 247.667 1434.29 261.011 1431.72 267C1422.76 287.834 1414.64 309.037 1405.99 330C1382.09 387.925 1358.23 445.884 1334.8 504C1324.49 529.559 1309.36 556.205 1303 583H1301L1286.25 552L1260.26 499L1179.25 333L1147.75 269L1134.36 244.028L1112 243H1052Z" fill="#FDA703"/>
<path d="M60 476C69.0912 483.533 82.4363 487.965 93 493.247L157 525.247L365 629.247C396.072 644.783 426.924 660.709 458 676.247C471.446 682.97 487.179 694.358 502 697V648L500.972 628.39L478 615.753L420 586.753L267 509.753L200 476L267 442.753L419 367.247L478 337.753L500.972 325.363L502 306V256C486.539 258.756 470.031 270.738 456 277.753L358 326.753L160 425.753C126.833 442.337 92.0192 457.312 60 476Z" fill="#FDA703"/>
<path d="M1560 256V305C1560 310.241 1558.12 320.058 1561.03 324.61C1564.66 330.298 1577.08 333.795 1583 336.753L1640 365.247C1690.39 390.442 1740.6 416.046 1791 441.247C1813.44 452.465 1836.87 469.048 1861 476V478C1835.09 485.465 1809.14 502.685 1785 514.753L1639 587.753C1621.43 596.539 1604.03 606.203 1586 614C1579.43 616.839 1564.96 621.232 1561.03 627.39C1558.12 631.942 1560 641.758 1560 647V697L1615 670.247L1723 616.247L1907 524.247L2001 477C1990.94 466.838 1971.79 461.147 1959 454.753L1867 408.753L1661 305.753L1595 272.753C1583.76 267.131 1572.09 259.483 1560 256Z" fill="#FDA703"/>
<path d="M664 630C717.378 641.018 771.328 648.553 820 617.564C885.506 575.856 906.097 494.049 901.089 421C898.67 385.701 891.314 349.837 864.985 324.039C814.042 274.124 746.276 327.499 710.425 369C703.458 377.065 696.982 385.445 690.63 394C681.649 406.095 670.055 420.707 664.969 435C661.517 444.7 664 458.766 664 469V630Z" fill="#2C2E34"/>
</svg>
