<svg id="pyscript-logo-icon" xmlns="http://www.w3.org/2000/svg" fill="currentColor" viewBox="0 0 165 155">
  <path d="M155.621 28.601C132.42-5.336 76.466-5.723 42.438 10.485-8.056 34.533-1.18 86.205 2.62 135.64c.295 3.812.605 7.706 2.147 11.203 1.538 3.498 4.56 6.59 8.346 7.145a8.704 8.704 0 0 0 4.41-.483c4.691-1.763 8.173-7.285 9.972-12.386 9.366-26.575 22.345-13.358 43.588-9.822 2.849.474 5.716.865 8.584 1.165l6.136-16.054-23.68-59.474a15.412 15.412 0 0 1 14.333-21.106c6.818 0 12.974 4.295 15.314 10.691l10.615 28.957 9.613-28.817a15.834 15.834 0 0 1 15.044-10.83 14.78 14.78 0 0 1 12.069 6.255 14.756 14.756 0 0 1 1.833 13.46l-26.398 73.734c24.295-8.256 43.956-29.783 49.092-55.01 3.167-15.556.933-32.551-8.027-45.662l.009-.005Z"/>
</svg>